# 
# Generated by Sweet Home 3D - mar nov 08 15:35:47 CST 2022
# http://www.sweethome3d.com/
# 
mtllib materials.mtl
g ground_1
usemtl ground_1
v -3.3681946 0.0 -1.5839539
v -3.3681946 0.0 704.43567
v 0.22238159 0.0 4.435257
v 996.63165 0.0 4.435379
v 996.63165 0.0 704.43567
v -3.3681946 0.0 718.416
v 1000.1764 0.0 718.416
v 1000.1764 0.0 -1.5839539
vn 0.0 1.0 0.0
vn 0.0 0.0 0.0
f 2//1 6//1 7//1
f 5//1 2//1 7//1
f 5//1 7//1 8//1
f 4//1 5//1 8//1
f 4//1 8//1 1//1
f 3//1 4//1 1//1
f 3//1 1//1 2//1
g wall_1_2
usemtl wall_1_2
v -0.41885376 0.0 2.4755096
v 3.3311462 0.0 6.2255096
v 996.4076 0.0 6.2255096
v 1000.1764 0.0 2.4755096
vn 0.0 -1.0 0.0
f 12//3 11//3 10//3
f 12//3 10//3 9//3
g wall_1_3
usemtl wall_1_2
v 7.0811462 0.0 9.97551
v 992.6388 0.0 9.97551
f 11//3 14//3 13//3
f 11//3 13//3 10//3
g wall_1_4
usemtl wall_1_2
v 3.3311462 310.0 6.2255096
v -0.41885376 310.0 2.4755096
v 1000.1764 310.0 2.4755096
v 996.4076 310.0 6.2255096
vt 0.0 0.0 0
vt 0.15023516 0.0 0
vt 0.15023516 20.805368 0
vt 0.0 20.805368 0
vt 0.15061219 0.0 0
vt 0.15061219 20.805368 0
vt -28.345474 0.0 0
vt -28.345474 20.805368 0
vn -0.70710677 0.0 0.70710677
vn 0.70533663 0.0 0.7088725
vn 0.0 0.0 -1.0
f 9/1/4 10/2/4 15/3/4 16/4/4
f 11/1/5 12/5/5 17/6/5 18/4/5
f 12/7/6 9/1/6 16/4/6 17/8/6
g wall_1_5
usemtl wall_1_2
v 7.0811462 310.0 9.97551
v 992.6388 310.0 9.97551
vt 27.91948 0.0 0
vt 27.91948 20.805368 0
vn 0.0 0.0 1.0
f 10/1/4 13/2/4 19/3/4 15/4/4
f 13/1/7 14/9/7 20/10/7 19/4/7
f 14/1/5 11/5/5 18/6/5 20/4/5
g wall_1_6
usemtl wall_1_2
f 16//1 15//1 18//1
f 16//1 18//1 17//1
g wall_1_7
usemtl wall_1_2
f 15//1 19//1 20//1
f 15//1 20//1 18//1
g wall_2_8
usemtl wall_1_2
v -0.13052368 0.0 697.22375
v -0.13052368 0.0 700.97375
v 996.67694 0.0 700.97375
v 992.9457 0.0 697.22375
f 24//3 23//3 22//3
f 24//3 22//3 21//3
g wall_2_9
usemtl wall_1_2
v -0.13052368 0.0 693.47375
v 989.21436 0.0 693.47375
f 26//3 24//3 21//3
f 26//3 21//3 25//3
g wall_2_10
usemtl wall_1_2
v -0.13052368 310.0 700.97375
v -0.13052368 310.0 697.22375
v 996.67694 310.0 700.97375
v 992.9457 310.0 697.22375
vt 0.1062323 0.0 0
vt 0.1062323 20.805368 0
vt -28.238173 0.0 0
vt -28.238173 20.805368 0
vt 0.14986028 0.0 0
vt 0.14986028 20.805368 0
vn -1.0 0.0 0.0
vn 0.70887566 0.0 -0.70533353
f 21/1/8 22/11/8 27/12/8 28/4/8
f 22/13/7 23/1/7 29/4/7 27/14/7
f 23/1/9 24/15/9 30/16/9 29/4/9
g wall_2_11
usemtl wall_1_2
v -0.13052368 310.0 693.47375
v 989.21436 310.0 693.47375
vt 0.1498615 0.0 0
vt 0.1498615 20.805368 0
vt 28.026768 0.0 0
vt 28.026768 20.805368 0
vn 0.7088698 0.0 -0.7053393
f 25/1/8 21/11/8 28/12/8 31/4/8
f 24/1/10 26/17/10 32/18/10 30/4/10
f 26/1/6 25/19/6 31/20/6 32/4/6
g wall_2_12
usemtl wall_1_2
f 28//1 27//1 29//1
f 28//1 29//1 30//1
g wall_2_13
usemtl wall_1_2
f 31//1 28//1 30//1
f 31//1 30//1 32//1
g wall_3_14
usemtl wall_1_2
v 3.3311224 0.0 545.07043
v 7.0811224 0.0 545.07043
f 13//3 34//3 33//3
f 13//3 33//3 10//3
v 3.3311183 0.0 636.57043
v 3.3311157 0.0 697.22375
v 7.0811157 0.0 700.97375
v 7.0811186 0.0 636.57043
f 38//3 37//3 36//3
f 38//3 36//3 35//3
g wall_3_15
usemtl wall_1_2
v -0.41887754 0.0 545.07043
f 10//3 33//3 39//3
f 10//3 39//3 9//3
v -0.41888154 0.0 636.57043
v -0.41888404 0.0 693.47375
f 35//3 36//3 41//3
f 35//3 41//3 40//3
g wall_3_16
usemtl wall_1_2
v 7.0811224 310.0 545.07043
v 3.3311224 310.0 545.07043
vt -15.158496 0.0 0
vt -15.158496 20.805368 0
vn 1.0 0.0 0
vn 0.70710677 0.0 -0.70710677
f 33/1/7 34/11/7 42/12/7 43/4/7
f 34/21/11 13/1/11 19/4/11 42/22/11
f 13/1/12 10/2/12 15/3/12 19/4/12
v 7.0811157 310.0 700.97375
v 3.3311157 310.0 697.22375
v 7.0811186 310.0 636.57043
v 3.3311183 310.0 636.57043
vt -19.575022 0.0 0
vt -17.750565 0.0 0
vt -17.750565 20.805368 0
vt -19.575022 20.805368 0
vn 1.0 0.0 0
f 36/1/4 37/2/4 44/3/4 45/4/4
f 37/23/13 38/24/13 46/25/13 44/26/13
f 38/1/6 35/11/6 47/12/6 46/4/6
v 3.3311183 208.5 636.57043
v 7.0811186 208.5 636.57043
v 7.0811224 208.5 545.07043
v 3.3311224 208.5 545.07043
vt 0.0 13.993288 0
vt 0.1062323 13.993288 0
vt -17.750565 13.993288 0
vt -15.158496 13.993288 0
vn 1.0 0.0 0
f 48/27/7 49/28/7 46/12/7 47/4/7
f 49/29/14 50/30/14 42/22/14 46/25/14
f 50/27/6 51/28/6 43/12/6 42/4/6
f 50//3 49//3 48//3
f 50//3 48//3 51//3
g wall_3_17
usemtl wall_1_2
v -0.41887754 310.0 545.07043
vt 15.370961 0.0 0
vt 15.370961 20.805368 0
vn -1.0 0.0 -0
f 9/1/15 39/31/15 52/32/15 16/4/15
f 39/1/7 33/11/7 43/12/7 52/4/7
f 10/1/12 9/2/12 16/3/12 15/4/12
v -0.41888404 310.0 693.47375
v -0.41888154 310.0 636.57043
vt 17.96303 0.0 0
vt 19.575022 0.0 0
vt 19.575022 20.805368 0
vt 17.96303 20.805368 0
vn -1.0 0.0 -0
vn -0.7071068 0.0 0.70710677
f 40/33/16 41/34/16 53/35/16 54/36/16
f 41/1/17 36/2/17 45/3/17 53/4/17
f 35/1/6 40/11/6 54/12/6 47/4/6
v -0.41887754 208.5 545.07043
v -0.41888154 208.5 636.57043
vt 15.370961 13.993288 0
vt 17.96303 13.993288 0
vn -1.0 0.0 -0
f 55/37/18 56/38/18 54/36/18 52/32/18
f 56/27/7 48/28/7 47/12/7 54/4/7
f 51/27/6 55/28/6 52/12/6 43/4/6
f 51//3 48//3 56//3
f 51//3 56//3 55//3
g wall_3_18
usemtl wall_1_2
f 15//1 43//1 42//1
f 15//1 42//1 19//1
f 47//1 45//1 44//1
f 47//1 44//1 46//1
f 43//1 47//1 46//1
f 43//1 46//1 42//1
g wall_3_19
usemtl wall_1_2
f 16//1 52//1 43//1
f 16//1 43//1 15//1
f 54//1 53//1 45//1
f 54//1 45//1 47//1
f 52//1 54//1 47//1
f 52//1 47//1 43//1
g wall_4_20
usemtl wall_1_2
f 36//3 37//3 22//3
f 36//3 22//3 21//3
g wall_4_21
usemtl wall_1_2
v -0.13052368 0.0 693.7621
f 25//3 57//3 41//3
f 36//3 21//3 57//3
g wall_4_22
usemtl wall_1_2
vt -0.20429574 0.0 0
vt -0.20429574 20.805368 0
f 21/1/8 22/11/8 27/12/8 28/4/8
f 22/39/7 37/1/7 44/4/7 27/40/7
f 37/1/12 36/2/12 45/3/12 44/4/12
g wall_4_23
usemtl wall_1_2
v -0.13052368 310.0 693.7621
vt 0.0115518905 0.0 0
vt 0.0115518905 20.805368 0
vt 0.008167991 0.0 0
vt 0.008167991 20.805368 0
vt 0.008168849 0.0 0
vt 0.008168849 20.805368 0
vn -0.70706964 0.0 0.7071439
vn 1.0 0.0 0.0
f 41/1/19 57/41/19 58/42/19 53/4/19
f 57/1/20 25/43/20 31/44/20 58/4/20
f 25/45/6 41/1/6 53/4/6 31/46/6
vt 0.0980643 0.0 0
vt 0.0980643 20.805368 0
vt 0.13868326 0.0 0
vt 0.13868326 20.805368 0
vn 0.7071099 0.0 -0.70710367
f 57/1/8 21/47/8 28/48/8 58/4/8
f 36/1/21 57/49/21 58/50/21 45/4/21
g wall_4_24
usemtl wall_1_2
f 28//1 27//1 44//1
f 28//1 44//1 45//1
g wall_4_25
usemtl wall_1_2
f 53//1 58//1 31//1
f 58//1 28//1 45//1
g wall_5_26
usemtl wall_1_2
v 994.9674 0.0 293.68237
v 998.71735 0.0 293.70117
f 60//3 59//3 11//3
f 60//3 11//3 12//3
v 994.50903 0.0 385.18124
v 998.259 0.0 385.20004
f 62//3 23//3 24//3
f 62//3 24//3 61//3
f 60//3 62//3 61//3
f 60//3 61//3 59//3
g wall_5_27
usemtl wall_1_2
v 991.21747 0.0 293.6636
f 59//3 63//3 14//3
f 59//3 14//3 11//3
v 990.75903 0.0 385.16248
f 61//3 24//3 26//3
f 61//3 26//3 64//3
f 59//3 61//3 64//3
f 59//3 64//3 63//3
g wall_5_28
usemtl wall_1_2
v 998.71735 310.0 293.70117
v 994.9674 310.0 293.68237
vt 0.106231906 0.0 0
vt 0.106231906 20.805368 0
vt -8.250122 0.0 0
vt -8.250122 20.805368 0
vn -0.70533663 0.0 -0.7088725
vn -0.0050130393 0.0 0.9999874
vn 0.9999874 0.0 0.005009954
f 12/1/22 11/5/22 18/6/22 17/4/22
f 59/1/23 60/51/23 65/52/23 66/4/23
f 60/53/24 12/1/24 17/4/24 65/54/24
v 998.259 310.0 385.20004
v 994.50903 310.0 385.18124
vt -19.787735 0.0 0
vt -10.842191 0.0 0
vt -10.842191 20.805368 0
vt -19.787735 20.805368 0
vn -0.70887566 0.0 0.70533353
vn 0.9999874 0.0 0.0050099525
vn 0.0050130393 0.0 -0.9999874
f 24/1/25 23/15/25 29/16/25 30/4/25
f 23/55/26 62/56/26 67/57/26 29/58/26
f 62/1/27 61/51/27 68/52/27 67/4/27
v 998.259 60.0 385.20004
v 994.50903 60.0 385.18124
v 998.71735 60.0 293.70117
v 994.9674 60.0 293.68237
vt 0.106231906 4.0268455 0
vt 0.0 4.0268455 0
vt -8.250122 4.0268455 0
vt -10.842191 4.0268455 0
vn 0.9999874 0.0 0.005009551
f 61/1/23 62/51/23 69/59/23 70/60/23
f 62/56/28 60/53/28 71/61/28 69/62/28
f 60/1/27 59/51/27 72/59/27 71/60/27
f 72//1 70//1 69//1
f 72//1 69//1 71//1
v 994.50903 268.5 385.18124
v 998.259 268.5 385.20004
v 998.71735 268.5 293.70117
v 994.9674 268.5 293.68237
vt 0.0 18.020134 0
vt 0.106231906 18.020134 0
vt -10.842191 18.020134 0
vt -8.250122 18.020134 0
vn 0.9999874 0.0 0.0050095506
f 73/63/23 74/64/23 67/52/23 68/4/23
f 74/65/29 75/66/29 65/54/29 67/57/29
f 75/63/27 76/64/27 66/52/27 65/4/27
f 75//3 74//3 73//3
f 75//3 73//3 76//3
g wall_5_29
usemtl wall_1_2
v 991.21747 310.0 293.6636
vt 8.036591 0.0 0
vt 8.036591 20.805368 0
vt 0.1062319 0.0 0
vt 0.1062319 20.805368 0
vn -0.9999874 0.0 -0.005010107
vn -0.005004902 0.0 0.99998754
f 11/1/22 14/5/22 20/6/22 18/4/22
f 14/1/30 63/67/30 77/68/30 20/4/30
f 63/1/31 59/69/31 66/70/31 77/4/31
v 990.75903 310.0 385.16248
vt 10.628659 0.0 0
vt 19.3628 0.0 0
vt 19.3628 20.805368 0
vt 10.628659 20.805368 0
vt 0.10623363 0.0 0
vt 0.10623363 20.805368 0
vn -0.9999874 0.0 -0.005010061
vn -0.7088698 0.0 0.7053393
vn 0.00500482 0.0 -0.9999875
f 64/71/32 26/72/32 32/73/32 78/74/32
f 26/1/33 24/17/33 30/18/33 32/4/33
f 61/1/34 64/75/34 78/76/34 68/4/34
v 990.75903 60.0 385.16248
v 991.21747 60.0 293.6636
vt 10.628659 4.0268455 0
vt 8.036591 4.0268455 0
vt 0.10623363 4.0268455 0
vt 0.1062319 4.0268455 0
vn -0.9999874 0.0 -0.005010218
vn -0.0050048204 0.0 0.99998754
vn 0.005004902 0.0 -0.99998754
f 63/67/35 64/71/35 79/77/35 80/78/35
f 64/1/36 61/75/36 70/79/36 79/60/36
f 59/1/37 63/69/37 80/80/37 72/60/37
f 80//1 79//1 70//1
f 80//1 70//1 72//1
v 991.21747 268.5 293.6636
v 990.75903 268.5 385.16248
vt 8.036591 18.020134 0
vt 10.628659 18.020134 0
vt 0.10623363 18.020134 0
vt 0.1062319 18.020134 0
vn -0.00500482 0.0 0.9999875
f 81/81/35 82/82/35 78/74/35 77/68/35
f 82/63/38 73/83/38 68/76/38 78/4/38
f 76/63/37 81/84/37 77/70/37 66/4/37
f 76//3 73//3 82//3
f 76//3 82//3 81//3
g wall_5_30
usemtl wall_1_2
f 17//1 18//1 66//1
f 17//1 66//1 65//1
f 68//1 30//1 29//1
f 68//1 29//1 67//1
f 66//1 68//1 67//1
f 66//1 67//1 65//1
g wall_5_31
usemtl wall_1_2
f 18//1 20//1 77//1
f 18//1 77//1 66//1
f 78//1 32//1 30//1
f 78//1 30//1 68//1
f 77//1 78//1 68//1
f 77//1 68//1 66//1
g room_6_32
usemtl room_6_32
vt -0.08420487 -17.610891 0
vt 24.915792 -17.610891 0
vt 24.915792 -0.11088448 0
vt 0.00555954 -0.110881425 0
f 2/85/1 5/86/1 4/87/1
f 2/85/1 4/87/1 3/88/1
g room_6_33
usemtl room_6_33
v 0.22238159 310.0 4.435257
v 996.63165 310.0 4.435379
v 996.63165 310.0 704.43567
v -3.3681946 310.0 704.43567
vt 0.001482544 0.02956838 0
vt 6.6442113 0.029569194 0
vt 6.6442113 4.696238 0
vt -0.02245463 4.696238 0
f 83/89/3 84/90/3 85/91/3
f 83/89/3 85/91/3 86/92/3
g Etagere_3_34
usemtl flbrown
v 660.4851 250.7 693.47375
v 660.4851 250.7 653.47375
v 859.4542 250.7 653.47375
v 859.4542 250.7 693.47375
v 859.4542 251.70001 653.47375
v 859.4542 251.70001 693.47375
v 660.4851 251.70001 693.47375
v 660.4851 251.70001 653.47375
vn 1.0 0.0 0.0000001
vn -1.0 0.0 -0.0000001
vn 0.0000001 0.0 -1.0
vn -0.0000001 0.0 1.0
f 87//3 88//3 89//3
f 87//3 89//3 90//3
f 90//39 89//39 91//39
f 90//39 91//39 92//39
f 93//40 94//40 88//40
f 93//40 88//40 87//40
f 91//41 89//41 88//41
f 91//41 88//41 94//41
f 93//42 87//42 90//42
f 93//42 90//42 92//42
f 94//1 93//1 92//1
f 94//1 92//1 91//1
g Etagere_1_35
usemtl flbrown
v 660.4851 81.69999 693.47375
v 660.4851 81.69999 653.47375
v 859.4542 81.69999 653.47375
v 859.4542 81.69999 693.47375
v 859.4542 82.7 653.47375
v 859.4542 82.7 693.47375
v 660.4851 82.7 693.47375
v 660.4851 82.7 653.47375
f 95//3 96//3 97//3
f 95//3 97//3 98//3
f 98//39 97//39 99//39
f 98//39 99//39 100//39
f 101//40 102//40 96//40
f 101//40 96//40 95//40
f 99//41 97//41 96//41
f 99//41 96//41 102//41
f 101//42 95//42 98//42
f 101//42 98//42 100//42
f 102//1 101//1 100//1
f 102//1 100//1 99//1
g Etagere_36
usemtl flbrown
f 95//3 96//3 97//3
f 95//3 97//3 98//3
f 98//39 97//39 99//39
f 98//39 99//39 100//39
f 101//40 102//40 96//40
f 101//40 96//40 95//40
f 99//41 97//41 96//41
f 99//41 96//41 102//41
f 101//42 95//42 98//42
f 101//42 98//42 100//42
f 102//1 101//1 100//1
f 102//1 100//1 99//1
g Etagere_4_37
usemtl flbrown
v 859.4542 222.6 693.47375
v 859.4542 223.6 693.47375
v 660.4851 223.6 693.47375
v 660.4851 222.6 693.47375
v 660.4851 222.6 653.47375
v 859.4542 222.6 653.47375
v 859.4542 223.6 653.47375
v 660.4851 223.6 653.47375
f 103//42 104//42 105//42
f 103//42 105//42 106//42
f 106//3 107//3 108//3
f 106//3 108//3 103//3
f 103//39 108//39 109//39
f 103//39 109//39 104//39
f 106//40 105//40 110//40
f 106//40 110//40 107//40
f 110//1 105//1 104//1
f 110//1 104//1 109//1
f 109//41 108//41 107//41
f 109//41 107//41 110//41
g Etagere_6_38
usemtl flbrown
v 859.4542 110.899994 653.47375
v 859.4542 109.899994 653.47375
v 660.4851 109.899994 653.47375
v 660.4851 110.899994 653.47375
v 660.4851 110.899994 693.47375
v 859.4542 110.899994 693.47375
v 660.4851 109.899994 693.47375
v 859.4542 109.899994 693.47375
vn 0.0000001 0.0 -1.0
vn -0.0000001 0.0 1.0
f 111//43 112//43 113//43
f 111//43 113//43 114//43
f 115//1 116//1 111//1
f 115//1 111//1 114//1
f 113//40 117//40 115//40
f 113//40 115//40 114//40
f 111//39 116//39 118//39
f 111//39 118//39 112//39
f 117//3 113//3 112//3
f 117//3 112//3 118//3
f 117//44 118//44 116//44
f 117//44 116//44 115//44
g Etagere_2_39
usemtl flbrown
v 859.4542 279.9 653.47375
v 859.4542 278.9 653.47375
v 660.4851 278.9 653.47375
v 660.4851 279.9 653.47375
v 660.4851 279.9 693.47375
v 859.4542 279.9 693.47375
v 660.4851 278.9 693.47375
v 859.4542 278.9 693.47375
f 119//43 120//43 121//43
f 119//43 121//43 122//43
f 123//1 124//1 119//1
f 123//1 119//1 122//1
f 121//40 125//40 123//40
f 121//40 123//40 122//40
f 119//39 124//39 126//39
f 119//39 126//39 120//39
f 125//3 121//3 120//3
f 125//3 120//3 126//3
f 125//44 126//44 124//44
f 125//44 124//44 123//44
g Etagere_8_40
usemtl flbrown
v 859.4542 194.4 693.47375
v 859.4542 195.4 693.47375
v 660.4851 195.4 693.47375
v 660.4851 194.4 693.47375
v 660.4851 194.4 653.47375
v 859.4542 194.4 653.47375
v 859.4542 195.4 653.47375
v 660.4851 195.4 653.47375
f 127//42 128//42 129//42
f 127//42 129//42 130//42
f 130//3 131//3 132//3
f 130//3 132//3 127//3
f 127//39 132//39 133//39
f 127//39 133//39 128//39
f 130//40 129//40 134//40
f 130//40 134//40 131//40
f 134//1 129//1 128//1
f 134//1 128//1 133//1
f 133//41 132//41 131//41
f 133//41 131//41 134//41
g Montant_41
usemtl flbrown
v 659.96967 281.0 653.47375
v 659.96967 70.0 653.47375
v 659.96967 70.0 693.47375
v 659.96967 281.0 693.47375
v 662.03156 281.0 653.47375
v 662.0315 281.0 693.47375
v 662.03156 70.0 653.47375
v 662.0315 70.0 693.47375
f 135//40 136//40 137//40
f 135//40 137//40 138//40
f 139//1 135//1 138//1
f 139//1 138//1 140//1
f 141//39 139//39 140//39
f 141//39 140//39 142//39
f 142//3 137//3 136//3
f 142//3 136//3 141//3
f 136//41 135//41 139//41
f 136//41 139//41 141//41
f 138//42 137//42 142//42
f 138//42 142//42 140//42
g Etagere_7_42
usemtl flbrown
v 859.4542 139.0 653.47375
v 859.4542 138.0 653.47375
v 660.4851 138.0 653.47375
v 660.4851 139.0 653.47375
v 660.4851 139.0 693.47375
v 859.4542 139.0 693.47375
v 660.4851 138.0 693.47375
v 859.4542 138.0 693.47375
f 143//43 144//43 145//43
f 143//43 145//43 146//43
f 147//1 148//1 143//1
f 147//1 143//1 146//1
f 145//40 149//40 147//40
f 145//40 147//40 146//40
f 143//39 148//39 150//39
f 143//39 150//39 144//39
f 149//3 145//3 144//3
f 149//3 144//3 150//3
f 149//44 150//44 148//44
f 149//44 148//44 147//44
g Montant_1_43
usemtl flbrown
v 857.90784 281.0 653.47375
v 857.90784 70.0 653.47375
v 857.9078 70.0 693.47375
v 857.9078 281.0 693.47375
v 859.96967 281.0 653.47375
v 859.96967 281.0 693.47375
v 859.96967 70.0 653.47375
v 859.96967 70.0 693.47375
f 151//40 152//40 153//40
f 151//40 153//40 154//40
f 155//1 151//1 154//1
f 155//1 154//1 156//1
f 157//39 155//39 156//39
f 157//39 156//39 158//39
f 158//3 153//3 152//3
f 158//3 152//3 157//3
f 152//41 151//41 155//41
f 152//41 155//41 157//41
f 154//42 153//42 158//42
f 154//42 158//42 156//42
g Etagere_5_44
usemtl flbrown
v 660.4851 166.2 693.47375
v 660.4851 166.2 653.47375
v 859.4542 166.2 653.47375
v 859.4542 166.2 693.47375
v 660.4851 167.2 653.47375
v 660.4851 167.2 693.47375
v 859.4542 167.2 693.47375
v 859.4542 167.2 653.47375
f 159//3 160//3 161//3
f 159//3 161//3 162//3
f 163//1 164//1 165//1
f 163//1 165//1 166//1
f 162//39 161//39 166//39
f 162//39 166//39 165//39
f 166//41 161//41 160//41
f 166//41 160//41 163//41
f 159//40 164//40 163//40
f 159//40 163//40 160//40
f 162//42 165//42 164//42
f 162//42 164//42 159//42
g bottom_45
usemtl bottom
v 489.60345 0.0 -1.5839539
v 989.60345 0.0 -1.5839539
v 989.60345 0.0 718.416
v 489.60345 0.0 718.416
vt 0.0 36.0 0
vt 25.0 36.0 0
vt 25.0 0.0 0
f 167/93/3 168/94/3 169/95/3
f 167/93/3 169/95/3 170/1/3
g top_46
usemtl top
v 489.60345 70.0 -1.5839539
v 489.60345 70.0 718.416
v 989.60345 70.0 718.416
v 989.60345 70.0 -1.5839539
vt 0.0 39.5 0
vt 0.0 3.5 0
vt 25.0 3.5 0
vt 25.0 39.5 0
f 171/96/1 172/97/1 173/98/1
f 171/96/1 173/98/1 174/99/1
g left_47
usemtl left
f 167/93/8 170/1/8 172/97/8
f 167/93/8 172/97/8 171/96/8
g right_48
usemtl right
f 168/94/20 174/99/20 173/98/20
f 168/94/20 173/98/20 169/95/20
g back_49
usemtl back
f 167/93/6 171/96/6 174/99/6
f 167/93/6 174/99/6 168/94/6
g front_50
usemtl front
f 169/95/7 173/98/7 172/97/7
f 169/95/7 172/97/7 170/1/7
g Montant_51
usemtl white
v 8.081417 208.5 545.07043
v 8.081417 0.0 545.07043
v -1.4193329 0.0 545.07043
v -1.4193329 208.5 545.07043
v -1.419333 0.0 550.57043
v 4.131105 0.0 550.57043
v 4.131105 203.0 550.57043
v -1.419333 203.0 550.57043
v -1.419334 208.5 636.57043
v 8.081415 208.5 636.57043
v 4.131104 204.09999 632.1704
v 8.081415 204.09999 632.1704
v 8.081415 0.0 632.1704
v 4.131104 0.0 632.1704
v -1.419334 0.0 636.57043
v 8.081415 0.0 636.57043
v 4.131105 204.09999 549.47046
v 8.081417 204.09999 549.47046
v 4.131104 203.0 631.07043
v 4.131104 0.0 631.07043
v -1.4193339 0.0 631.07043
v -1.4193339 203.0 631.07043
v 8.081417 0.0 549.47046
v 4.131105 0.0 549.47046
vn 0 0.0 -1.0
vn -0 0.0 1.0
vn 1.0 0.0 0
vn 1.0 0.0 0
vn -1.0 0.0 -0
vn -1.0 0.0 -0
f 175//45 176//45 177//45
f 175//45 177//45 178//45
f 179//46 180//46 181//46
f 179//46 181//46 182//46
f 183//1 184//1 175//1
f 183//1 175//1 178//1
f 185//45 186//45 187//45
f 185//45 187//45 188//45
f 184//46 183//46 189//46
f 184//46 189//46 190//46
f 186//3 185//3 191//3
f 186//3 191//3 192//3
f 193//45 194//45 195//45
f 193//45 195//45 196//45
f 197//47 176//47 175//47
f 192//48 197//48 175//48
f 192//48 175//48 184//48
f 186//48 192//48 184//48
f 186//47 184//47 190//47
f 186//48 190//48 187//48
f 197//46 192//46 191//46
f 197//46 191//46 198//46
f 196//49 195//49 189//49
f 196//49 189//49 183//49
f 196//50 183//50 178//50
f 182//50 196//50 178//50
f 182//49 178//49 177//49
f 182//49 177//49 179//49
f 196//3 182//3 181//3
f 196//3 181//3 193//3
f 188//3 187//3 190//3
f 188//3 190//3 189//3
f 177//3 176//3 197//3
f 177//3 197//3 198//3
f 189//3 195//3 194//3
f 189//3 194//3 188//3
f 179//3 177//3 198//3
f 179//3 198//3 180//3
f 185//48 193//48 181//48
f 185//48 181//48 191//48
f 180//48 198//48 191//48
f 180//48 191//48 181//48
f 185//48 188//48 194//48
f 185//48 194//48 193//48
g Montant_52
usemtl white
v 989.7588 268.5 385.15744
v 989.7588 60.0 385.15744
v 999.2594 60.0 385.20505
v 999.2594 268.5 385.20505
v 999.2869 60.0 379.7051
v 993.7366 60.0 379.6773
v 993.7366 263.0 379.6773
v 999.2869 263.0 379.7051
v 999.7178 268.5 293.7062
v 990.21716 268.5 293.6586
v 994.1454 264.1 298.07834
v 990.1951 264.1 298.05853
v 990.1951 60.0 298.05853
v 994.1454 60.0 298.07834
v 999.7178 60.0 293.7062
v 990.21716 60.0 293.6586
v 993.7311 264.1 380.77728
v 989.7808 264.1 380.7575
v 994.1399 263.0 299.1783
v 994.1399 60.0 299.1783
v 999.69025 60.0 299.20612
v 999.69025 263.0 299.20612
v 989.7808 60.0 380.7575
v 993.7311 60.0 380.77728
vn -0.0050099124 0.0 0.9999875
vn 0.0050099124 0.0 -0.9999875
vn -0.9999875 0.0 -0.0050099124
vn -0.9999875 0.0 -0.005009913
vn 0.9999875 0.0 0.0050099124
vn 0.9999875 0.0 0.005009913
f 199//51 200//51 201//51
f 199//51 201//51 202//51
f 203//52 204//52 205//52
f 203//52 205//52 206//52
f 207//1 208//1 199//1
f 207//1 199//1 202//1
f 209//51 210//51 211//51
f 209//51 211//51 212//51
f 208//52 207//52 213//52
f 208//52 213//52 214//52
f 210//3 209//3 215//3
f 210//3 215//3 216//3
f 217//51 218//51 219//51
f 217//51 219//51 220//51
f 221//53 200//53 199//53
f 216//54 221//54 199//54
f 216//54 199//54 208//54
f 210//54 216//54 208//54
f 210//53 208//53 214//53
f 210//54 214//54 211//54
f 221//52 216//52 215//52
f 221//52 215//52 222//52
f 220//55 219//55 213//55
f 220//55 213//55 207//55
f 220//56 207//56 202//56
f 206//56 220//56 202//56
f 206//55 202//55 201//55
f 206//55 201//55 203//55
f 220//3 206//3 205//3
f 220//3 205//3 217//3
f 212//3 211//3 214//3
f 212//3 214//3 213//3
f 201//3 200//3 221//3
f 201//3 221//3 222//3
f 213//3 219//3 218//3
f 213//3 218//3 212//3
f 203//3 201//3 222//3
f 203//3 222//3 204//3
f 209//54 217//54 205//54
f 209//54 205//54 215//54
f 204//54 222//54 215//54
f 204//54 215//54 205//54
f 209//54 212//54 218//54
f 209//54 218//54 217//54
